<?xml version="1.0" encoding="UTF-8" standalone="no"?>
<!DOCTYPE svg PUBLIC "-//W3C//DTD SVG 1.1//EN" "http://www.w3.org/Graphics/SVG/1.1/DTD/svg11.dtd">
<svg width="100%" height="100%" viewBox="0 0 104 73" version="1.1" xmlns="http://www.w3.org/2000/svg" xmlns:xlink="http://www.w3.org/1999/xlink" xml:space="preserve" xmlns:serif="http://www.serif.com/" style="fill-rule:evenodd;clip-rule:evenodd;stroke-linecap:round;stroke-linejoin:round;stroke-miterlimit:1.5;">
    <g transform="matrix(1,0,0,1,-337.883,-434.317)">
        <g id="słoik">
            <g>
                <clipPath id="_clip1">
                    <path d="M411.195,112.301C430.758,112.301 449.989,112.3 469.263,112.3L469.263,112.304L471.459,112.304C471.29,126.345 481.348,139.719 498.794,151.181L498.429,151.182C507.306,158.639 512.952,169.821 512.952,182.312L512.952,456.974C512.952,479.406 494.74,497.619 472.307,497.619L305.979,497.619C283.546,497.619 265.333,479.406 265.333,456.974L265.333,182.312C265.333,169.821 270.98,158.639 279.857,151.181L279.804,151.181C279.888,151.126 279.971,151.071 280.057,151.014C281.706,149.647 283.464,148.408 285.315,147.311C299.348,136.755 307.289,124.794 307.139,112.304L309.335,112.304L309.335,112.3C328.635,112.3 347.891,112.301 367.479,112.301L367.479,112.3L411.195,112.3L411.195,112.301Z"/>
                </clipPath>
                <g clip-path="url(#_clip1)">
                    <g id="lada" transform="matrix(2,0,0,1,-265.333,1.42109e-14)">
                        <g>
                            <g id="napis-na-ladzie" serif:id="napis na ladzie" transform="matrix(1,0,0,1,9.75,3)">
                                <g id="litera-D" serif:id="litera D" transform="matrix(0.5,0,0,1,128.667,-6.5)">
                                    <path d="M350.383,444.617C350.383,441.443 347.806,438.867 344.633,438.867C344.633,438.867 327.583,439.043 327.583,438.817L327.383,473.217C327.383,473.19 344.633,473.367 344.633,473.367C347.806,473.367 350.383,470.79 350.383,467.617L350.383,444.617Z" style="fill:rgb(235,235,235);fill-opacity:0;stroke:white;stroke-width:2px;"/>
                                </g>
                                <g id="litera-e" serif:id="litera e" transform="matrix(1,0,0,1,-1.55556,8.44444)">
                                    <g transform="matrix(0.23913,0,0,0.247467,229.404,334.39)">
                                        <path d="M350.383,444.617C350.383,441.443 347.806,438.867 344.633,438.867C344.633,438.867 339.312,438.744 334.278,438.721C332.011,438.711 327.904,438.059 327.69,444.196L327.383,473.217C327.383,473.19 344.633,473.367 344.633,473.367C347.806,473.367 350.383,470.79 350.383,467.617L350.383,444.617Z" style="fill:rgb(235,235,235);fill-opacity:0;stroke:white;stroke-width:5.25px;"/>
                                    </g>
                                    <g transform="matrix(0.461176,0,0,0.52993,146.053,212.045)">
                                        <path d="M350.512,451.93C350.289,467.375 361.836,464.303 361.836,464.303" style="fill:none;stroke:white;stroke-width:2.66px;"/>
                                    </g>
                                </g>
                                <g id="litera-c" serif:id="litera c" transform="matrix(0.5,1.15385e-32,0,0.936116,131.791,29.834)">
                                    <path d="M373.734,451.425C373.734,451.425 363.467,450.054 363.623,458.758C363.784,467.795 373.845,466.98 373.845,466.98" style="fill:none;stroke:white;stroke-width:2.06px;"/>
                                </g>
                                <g id="litera-z" serif:id="litera z" transform="matrix(0.5,0,0,1,131.266,1.24345e-13)">
                                    <path d="M378.623,452.492C382.134,452.492 389.156,452.492 389.023,452.492C388.826,452.492 379.023,466.892 379.023,466.892L388.823,466.892" style="fill:none;stroke:white;stroke-width:2px;"/>
                                </g>
                                <g id="litera-k" serif:id="litera k" transform="matrix(0.5,0,0,1,132.667,1.13687e-13)">
                                    <path d="M390.256,439.658L390.423,467.092C390.423,467.092 391.841,465.003 392.552,463.324C393.54,460.989 397.623,452.492 397.623,452.492L393.779,460.608L399.423,467.092" style="fill:none;stroke:white;stroke-width:2px;"/>
                                </g>
                            </g>
                            <g id="szkło" transform="matrix(0.631164,0,0,0.9126,65.8233,39.5985)">
                                <g transform="matrix(0.987392,0,0,2.91363,20.6917,-864.698)">
                                    <clipPath id="_clip2">
                                        <rect x="426.299" y="451.581" width="13.347" height="1.663"/>
                                    </clipPath>
                                    <g clip-path="url(#_clip2)">
                                        <path d="M428.553,453.002L437.41,453.002C437.4,453.702 437.943,454.369 438.883,454.941L438.863,454.941C439.342,455.313 439.646,455.871 439.646,456.494L439.646,470.194C439.646,471.313 438.664,472.221 437.455,472.221L428.49,472.221C427.281,472.221 426.299,471.313 426.299,470.194L426.299,456.494C426.299,455.871 426.604,455.313 427.082,454.941L427.079,454.941L427.376,454.748C428.133,454.222 428.561,453.625 428.553,453.002ZM438.135,451.931L427.81,451.931L427.81,453.002L438.135,453.002L438.135,451.931Z" style="fill:rgb(194,164,137);fill-opacity:0;stroke:white;stroke-width:0.74px;"/>
                                    </g>
                                </g>
                                <g transform="matrix(0.989029,0,0,2.89315,19.941,-858.403)">
                                    <clipPath id="_clip3">
                                        <rect x="426.299" y="451.581" width="13.347" height="1.663"/>
                                    </clipPath>
                                    <g clip-path="url(#_clip3)">
                                        <path d="M428.553,453.002L437.41,453.002C437.4,453.702 437.943,454.369 438.883,454.941L438.863,454.941C439.342,455.313 439.646,455.871 439.646,456.494L439.646,470.194C439.646,471.313 438.664,472.221 437.455,472.221L428.49,472.221C427.281,472.221 426.299,471.313 426.299,470.194L426.299,456.494C426.299,455.871 426.604,455.313 427.082,454.941L427.079,454.941L427.376,454.748C428.133,454.222 428.561,453.625 428.553,453.002ZM438.135,451.931L427.81,451.931L427.81,453.002L438.135,453.002L438.135,451.931Z" style="fill:rgb(140,88,42);fill-opacity:0;stroke:white;stroke-width:0.74px;"/>
                                    </g>
                                </g>
                                <g transform="matrix(1,-1.60815e-32,1.61778e-32,-1,15.2938,927.159)">
                                    <clipPath id="_clip4">
                                        <rect x="425.491" y="464.449" width="15.697" height="8.709"/>
                                    </clipPath>
                                    <g clip-path="url(#_clip4)">
                                        <path d="M428.553,453.002L437.41,453.002C437.4,453.702 437.943,454.369 438.883,454.941L438.863,454.941C439.342,455.313 439.646,455.871 439.646,456.494L439.646,470.194C439.646,471.313 438.664,472.221 437.455,472.221L428.49,472.221C427.281,472.221 426.299,471.313 426.299,470.194L426.299,456.494C426.299,455.871 426.604,455.313 427.082,454.941L427.079,454.941L427.376,454.748C428.133,454.222 428.561,453.625 428.553,453.002ZM438.135,451.931L427.81,451.931L427.81,453.002L438.135,453.002L438.135,451.931Z" style="fill:rgb(140,88,42);fill-opacity:0;stroke:white;stroke-width:1.51px;"/>
                                    </g>
                                </g>
                                <g transform="matrix(1,0,0,1,15.3036,-0.0874493)">
                                    <clipPath id="_clip5">
                                        <rect x="425.429" y="457.397" width="15.76" height="15.439"/>
                                    </clipPath>
                                    <g clip-path="url(#_clip5)">
                                        <path d="M428.553,453.002L437.41,453.002C437.4,453.702 437.943,454.369 438.883,454.941L438.863,454.941C439.342,455.313 439.646,455.871 439.646,456.494L439.646,470.194C439.646,471.313 438.664,472.221 437.455,472.221L428.49,472.221C427.281,472.221 426.299,471.313 426.299,470.194L426.299,456.494C426.299,455.871 426.604,455.313 427.082,454.941L427.079,454.941L427.376,454.748C428.133,454.222 428.561,453.625 428.553,453.002ZM438.135,451.931L427.81,451.931L427.81,453.002L438.135,453.002L438.135,451.931Z" style="fill:rgb(140,88,42);fill-opacity:0;stroke:white;stroke-width:1.51px;"/>
                                    </g>
                                </g>
                            </g>
                        </g>
                    </g>
                </g>
            </g>
        </g>
    </g>
</svg>
