<?xml version="1.0" encoding="UTF-8" standalone="no"?>
<!DOCTYPE svg PUBLIC "-//W3C//DTD SVG 1.1//EN" "http://www.w3.org/Graphics/SVG/1.1/DTD/svg11.dtd">
<svg width="100%" height="100%" viewBox="0 0 249 410" version="1.1" xmlns="http://www.w3.org/2000/svg" xmlns:xlink="http://www.w3.org/1999/xlink" xml:space="preserve" xmlns:serif="http://www.serif.com/" style="fill-rule:evenodd;clip-rule:evenodd;stroke-linecap:round;stroke-linejoin:round;stroke-miterlimit:1.5;">
    <g transform="matrix(1,0,0,1,-264.683,-88.3879)">
        <g id="słoik">
            <g transform="matrix(0.275252,0,0,0.616358,276.082,103.493)">
                <rect x="-39.05" y="-24.507" width="899.609" height="663.95" style="fill:rgb(122,122,122);"/>
            </g>
            <g id="słoik1" serif:id="słoik">
                <path id="szkło" d="M411.195,112.301C430.758,112.301 449.989,112.3 469.263,112.3L469.263,112.304L471.459,112.304C471.29,126.345 481.348,139.719 498.794,151.181L498.429,151.182C507.306,158.639 512.952,169.821 512.952,182.312L512.952,456.974C512.952,479.406 494.74,497.619 472.307,497.619L305.979,497.619C283.546,497.619 265.333,479.406 265.333,456.974L265.333,182.312C265.333,169.821 270.98,158.639 279.857,151.181L279.804,151.181C279.888,151.126 279.971,151.071 280.057,151.014C281.706,149.647 283.464,148.408 285.315,147.311C299.348,136.755 307.289,124.794 307.139,112.304L309.335,112.304L309.335,112.3C328.635,112.3 347.891,112.301 367.479,112.301L367.479,112.3L411.195,112.3L411.195,112.301Z" style="stroke:black;stroke-width:1px;"/>
                <path id="szkło1" serif:id="szkło" d="M411.195,112.301C430.758,112.301 449.989,112.3 469.263,112.3L469.263,112.304L471.459,112.304C471.29,126.345 481.348,139.719 498.794,151.181L498.429,151.182C507.306,158.639 512.952,169.821 512.952,182.312L512.952,456.974C512.952,479.406 494.74,497.619 472.307,497.619L305.979,497.619C283.546,497.619 265.333,479.406 265.333,456.974L265.333,182.312C265.333,169.821 270.98,158.639 279.857,151.181L279.804,151.181C279.888,151.126 279.971,151.071 280.057,151.014C281.706,149.647 283.464,148.408 285.315,147.311C299.348,136.755 307.289,124.794 307.139,112.304L309.335,112.304L309.335,112.3C328.635,112.3 347.891,112.301 367.479,112.301L367.479,112.3L411.195,112.3L411.195,112.301Z" style="fill:none;stroke:white;stroke-width:1.3px;"/>
                <g id="deczko" transform="matrix(0.773539,0,0,1.51683,88.1259,-58.0396)">
                    <rect x="265.333" y="98.148" width="247.619" height="14.152" style="stroke:white;stroke-width:0.83px;stroke-linecap:butt;"/>
                </g>
            </g>
            <g id="cancel">
                <g id="kółeczko" transform="matrix(1.07629,0,0,1.05126,-16.7236,-6.91518)">
                    <ellipse cx="378.415" cy="103.198" rx="6.968" ry="7.134" style="stroke:white;stroke-width:0.66px;"/>
                </g>
                <g id="Krzyżyk">
                    <g id="lewakreska" transform="matrix(0.707107,0.707107,-0.707107,0.707107,183.911,-244.022)">
                        <rect x="386.348" y="98.092" width="8.017" height="0.612" style="stroke:white;stroke-width:0.7px;"/>
                    </g>
                    <g id="prawakreska" transform="matrix(1.08869,1.08869,-0.87596,0.87596,53.1657,-413.976)">
                        <rect x="391.47" y="98.593" width="0.39" height="6.458" style="stroke:white;stroke-width:0.5px;"/>
                    </g>
                </g>
            </g>
        </g>
    </g>
</svg>
