<?xml version="1.0" encoding="UTF-8" standalone="no"?>
<!DOCTYPE svg PUBLIC "-//W3C//DTD SVG 1.1//EN" "http://www.w3.org/Graphics/SVG/1.1/DTD/svg11.dtd">
<svg width="100%" height="100%" viewBox="0 0 249 410" version="1.1" xmlns="http://www.w3.org/2000/svg" xmlns:xlink="http://www.w3.org/1999/xlink" xml:space="preserve" xmlns:serif="http://www.serif.com/" style="fill-rule:evenodd;clip-rule:evenodd;stroke-linecap:round;stroke-linejoin:round;stroke-miterlimit:1.5;">
    <g transform="matrix(1,0,0,1,-264.683,-88.3879)">
        <g id="słoik" transform="matrix(1,0,0,1,0,0.333333)">
            <g opacity="0.96">
                <g transform="matrix(0.275252,0,0,0.616358,276.082,103.493)">
                    <rect x="-39.05" y="-24.507" width="899.609" height="663.95" style="fill:rgb(122,122,122);"/>
                </g>
                <g id="słoik1" serif:id="słoik">
                    <path id="szkło" d="M411.195,112.301C430.758,112.301 449.989,112.3 469.263,112.3L469.263,112.304L471.459,112.304C471.29,126.345 481.348,139.719 498.794,151.181L498.429,151.182C507.306,158.639 512.952,169.821 512.952,182.312L512.952,456.974C512.952,479.406 494.74,497.619 472.307,497.619L305.979,497.619C283.546,497.619 265.333,479.406 265.333,456.974L265.333,182.312C265.333,169.821 270.98,158.639 279.857,151.181L279.804,151.181C279.888,151.126 279.971,151.071 280.057,151.014C281.706,149.647 283.464,148.408 285.315,147.311C299.348,136.755 307.289,124.794 307.139,112.304L309.335,112.304L309.335,112.3C328.635,112.3 347.891,112.301 367.479,112.301L367.479,112.3L411.195,112.3L411.195,112.301Z" style="stroke:black;stroke-width:1px;"/>
                    <path id="szkło1" serif:id="szkło" d="M411.195,112.301C430.758,112.301 449.989,112.3 469.263,112.3L469.263,112.304L471.459,112.304C471.29,126.345 481.348,139.719 498.794,151.181L498.429,151.182C507.306,158.639 512.952,169.821 512.952,182.312L512.952,456.974C512.952,479.406 494.74,497.619 472.307,497.619L305.979,497.619C283.546,497.619 265.333,479.406 265.333,456.974L265.333,182.312C265.333,169.821 270.98,158.639 279.857,151.181L279.804,151.181C279.888,151.126 279.971,151.071 280.057,151.014C281.706,149.647 283.464,148.408 285.315,147.311C299.348,136.755 307.289,124.794 307.139,112.304L309.335,112.304L309.335,112.3C328.635,112.3 347.891,112.301 367.479,112.301L367.479,112.3L411.195,112.3L411.195,112.301Z" style="fill:none;stroke:white;stroke-width:1.3px;"/>
                    <g id="deczko" transform="matrix(0.773539,0,0,1.51683,88.1259,-58.0396)">
                        <rect x="265.333" y="98.148" width="247.619" height="14.152" style="stroke:white;stroke-width:0.83px;stroke-linecap:butt;"/>
                    </g>
                </g>
                <g id="cancel">
                    <g id="kółeczko" transform="matrix(1.07629,0,0,1.05126,-16.7236,-6.91518)">
                        <ellipse cx="378.415" cy="103.198" rx="6.968" ry="7.134" style="stroke:white;stroke-width:0.66px;"/>
                    </g>
                    <g id="Krzyżyk">
                        <g id="lewakreska" transform="matrix(0.707107,0.707107,-0.707107,0.707107,183.911,-244.022)">
                            <rect x="386.348" y="98.092" width="8.017" height="0.612" style="stroke:white;stroke-width:0.7px;"/>
                        </g>
                        <g id="prawakreska" transform="matrix(1.08869,1.08869,-0.87596,0.87596,53.1657,-413.976)">
                            <rect x="391.47" y="98.593" width="0.39" height="6.458" style="stroke:white;stroke-width:0.5px;"/>
                        </g>
                    </g>
                </g>
            </g>
        </g>
        <g transform="matrix(1.46729,0,0,1.46729,239.896,41.6568)">
            <text x="76.696px" y="103.031px" style="font-family:'ArialMT', 'Arial', sans-serif;font-size:12px;fill:white;">deczko@vp.pl</text>
        </g>
        <g id="koperta" transform="matrix(0.462744,0,0,0.462744,158.459,79.42)">
            <g transform="matrix(1,0,0,1,264.683,88.3879)">
                <rect x="50.112" y="127.152" width="67.468" height="39.789" style="stroke:white;stroke-width:3.24px;"/>
            </g>
            <g id="dziubek" transform="matrix(1.0754,6.49083e-17,-7.14494e-17,-0.60034,257.756,316.023)">
                <path d="M84.278,129.747L114.985,166.941L53.572,166.941L84.278,129.747Z" style="stroke:white;stroke-width:3.72px;"/>
            </g>
        </g>
        <g id="telefon" transform="matrix(0.646821,0,0,0.638535,114.065,69.6076)">
            <g transform="matrix(0.596952,-0.417867,0.806517,1.15217,159.258,88.5583)">
                <clipPath id="_clip10">
                    <rect x="38.363" y="131.889" width="40.658" height="17.494"/>
                </clipPath>
                <g clip-path="url(#_clip10)">
                    <path d="M74.973,133.179C74.973,133.179 60.549,131.653 50.998,133.588C48.794,134.034 46.284,135.86 45.562,137.038C42.677,141.744 37.617,150.015 45.675,162.972C46.368,164.087 49.624,165.256 52.111,165.602C61.415,166.896 76.997,165.447 76.997,165.447L75.68,155.799C75.68,155.799 62.037,157.29 58.605,156.419C56.402,155.86 55.57,154.447 55.092,150.575C54.56,146.266 54.763,143.503 57.368,142.405C60.571,141.055 74.305,142.476 74.305,142.476L74.973,133.179Z" style="stroke:white;stroke-width:2.08px;"/>
                </g>
            </g>
            <g transform="matrix(0.578825,-0.442636,-0.854324,-1.11718,407.835,428.123)">
                <clipPath id="_clip11">
                    <rect x="38.363" y="131.889" width="40.658" height="17.494"/>
                </clipPath>
                <g clip-path="url(#_clip11)">
                    <path d="M74.973,133.179C74.973,133.179 60.549,131.653 50.998,133.588C48.794,134.034 46.284,135.86 45.562,137.038C42.677,141.744 37.617,150.015 45.675,162.972C46.368,164.087 49.624,165.256 52.111,165.602C61.415,166.896 76.997,165.447 76.997,165.447L75.68,155.799C75.68,155.799 62.037,157.29 58.605,156.419C56.402,155.86 55.57,154.447 55.092,150.575C54.56,146.266 54.763,143.503 57.368,142.405C60.571,141.055 74.305,142.476 74.305,142.476L74.973,133.179Z" style="stroke:white;stroke-width:2.1px;"/>
                </g>
            </g>
            <g transform="matrix(0.459086,-0.282085,0.400052,0.651076,236.042,143.896)">
                <rect x="40.525" y="126.281" width="3.333" height="16.667" style="fill:white;"/>
            </g>
            <g transform="matrix(0.432448,-0.321435,0.455859,0.613298,247.987,176.975)">
                <rect x="40.525" y="126.281" width="3.333" height="16.667" style="fill:white;"/>
            </g>
        </g>
        <g transform="matrix(1.22185,0,0,1.5842,245.839,19.3585)">
            <text x="88.171px" y="129.747px" style="font-family:'ArialMT', 'Arial', sans-serif;font-size:12px;fill:white;">+48 535 317 193</text>
        </g>
        <g transform="matrix(1,0,0,1,264.683,88.3879)">
            <rect x="38.867" y="194.62" width="173.861" height="111.582" style="fill:white;"/>
        </g>
        <g transform="matrix(1.17213,0,0,-0.156098,264.395,268.928)">
            <path d="M1.673,159.156L248.192,157.426" style="fill:none;stroke:white;stroke-width:1.79px;"/>
        </g>
        <g transform="matrix(1,0,0,1,264.683,88.3879)">
            <path d="M10.762,67.932L240.762,69.932" style="fill:none;stroke:white;stroke-width:1.5px;"/>
        </g>
        <g transform="matrix(1,0,0,1,274.198,98.7676)">
            <text x="70.871px" y="171.266px" style="font-family:'ArialMT', 'Arial', sans-serif;font-size:12px;fill:white;">Napisz do nas:</text>
        </g>
        <g transform="matrix(0.835938,0,0,1,285.816,88.3879)">
            <path d="M189.762,325.432C183.49,325.432 178.398,321.176 178.398,315.932L73.127,315.932C73.127,321.176 68.035,325.432 61.762,325.432L61.762,344.432C68.035,344.432 73.127,348.689 73.127,353.932L178.398,353.932C178.398,348.689 183.49,344.432 189.762,344.432L189.762,325.432Z" style="stroke:white;stroke-width:1.63px;"/>
        </g>
        <g transform="matrix(2.33283,0,0,2.33283,177.509,-354.175)">
            <text x="75.762px" y="336.932px" style="font-family:'ArialMT', 'Arial', sans-serif;font-size:12px;fill:white;">W<tspan x="86.983px 92.983px " y="336.932px 336.932px ">yś</tspan>lĳ</text>
        </g>
    </g>
</svg>