<?xml version="1.0" encoding="UTF-8" standalone="no"?>
<!DOCTYPE svg PUBLIC "-//W3C//DTD SVG 1.1//EN" "http://www.w3.org/Graphics/SVG/1.1/DTD/svg11.dtd">
<svg width="100%" height="100%" viewBox="0 0 419 396" version="1.1" xmlns="http://www.w3.org/2000/svg" xmlns:xlink="http://www.w3.org/1999/xlink" xml:space="preserve" xmlns:serif="http://www.serif.com/" style="fill-rule:evenodd;clip-rule:evenodd;stroke-linejoin:round;stroke-miterlimit:2;">
    <g transform="matrix(1,0,0,1,-400.587,-217.963)">
        <g transform="matrix(1.04911,0,0,1.04911,-19.6737,-10.7046)">
            <path d="M799.087,378.239C799.087,289.78 727.27,217.963 638.811,217.963L560.863,217.963C472.404,217.963 400.587,289.78 400.587,378.239L400.587,434.28C400.587,522.739 472.404,594.556 560.863,594.556L638.811,594.556C727.27,594.556 799.087,522.739 799.087,434.28L799.087,378.239Z" style="fill:rgb(255,166,57);"/>
        </g>
        <g transform="matrix(1,0,0,1,481.985,249.261)">
            <path d="M24.026,100.362C14.132,100.362 6.259,108.235 6.259,118.129L6.259,192.138C6.259,202.032 14.132,209.905 24.026,209.905C33.92,209.905 41.794,202.032 41.794,192.138L41.794,118.129C41.794,108.235 33.92,100.362 24.026,100.362ZM231.25,100.362C221.355,100.362 213.482,108.235 213.482,118.129L213.482,192.138C213.482,202.032 221.355,209.905 231.25,209.905C241.144,209.905 249.017,202.032 249.017,192.138L249.017,118.129C249.017,108.235 241.144,100.362 231.25,100.362Z" style="fill-rule:nonzero;"/>
        </g>
        <g transform="matrix(1,0,0,1,481.985,249.261)">
            <path d="M98.034,184.818C88.14,184.818 80.266,192.691 80.266,202.586L80.266,276.594C80.266,286.488 88.14,294.361 98.034,294.361C107.928,294.361 115.801,286.488 115.801,276.594L115.801,202.586C115.801,192.691 107.928,184.818 98.034,184.818ZM157.241,184.818C147.346,184.818 139.473,192.691 139.473,202.586L139.473,276.594C139.473,286.488 147.346,294.361 157.241,294.361C167.135,294.361 175.008,286.488 175.008,276.594L175.008,202.586C175.008,192.691 167.135,184.818 157.241,184.818Z" style="fill-rule:nonzero;"/>
        </g>
        <g transform="matrix(1,0,0,1,481.985,249.261)">
            <path d="M78.443,7.117C78.023,7.121 77.632,7.229 77.246,7.443C75.979,8.145 75.563,9.601 76.267,10.871L88.783,33.482C64.702,46.012 48.437,69.823 48.405,97.151L206.87,97.151C206.837,69.823 190.572,46.012 166.492,33.482L179.008,10.871C179.712,9.601 179.295,8.145 178.028,7.443C177.642,7.229 177.251,7.121 176.831,7.117C175.932,7.108 175.08,7.557 174.6,8.423L161.921,31.278C151.548,26.677 139.914,24.095 127.637,24.095C115.36,24.095 103.726,26.677 93.354,31.278L80.675,8.423C80.195,7.557 79.343,7.108 78.443,7.117ZM48.405,103.409L48.405,218.258C48.405,228.87 56.948,237.413 67.56,237.413L187.715,237.413C198.327,237.413 206.87,228.87 206.87,218.258L206.87,103.409L48.405,103.409Z" style="fill-rule:nonzero;"/>
        </g>
        <g transform="matrix(1,0,0,1,481.985,251.582)">
            <path d="M91.068,54.923C87.451,54.923 84.456,57.917 84.456,61.534C84.456,65.152 87.451,68.146 91.068,68.146C94.686,68.146 97.68,65.152 97.68,61.534C97.68,57.917 94.686,54.923 91.068,54.923ZM164.206,54.923C160.588,54.923 157.594,57.917 157.594,61.534C157.594,65.152 160.588,68.146 164.206,68.146C167.823,68.146 170.818,65.152 170.818,61.534C170.818,57.917 167.823,54.923 164.206,54.923Z" style="fill:white;fill-rule:nonzero;"/>
        </g>
    </g>
</svg>
