<?xml version="1.0" encoding="UTF-8" standalone="no"?>
<!DOCTYPE svg PUBLIC "-//W3C//DTD SVG 1.1//EN" "http://www.w3.org/Graphics/SVG/1.1/DTD/svg11.dtd">
<svg width="100%" height="100%" viewBox="0 0 1080 1920" version="1.1" xmlns="http://www.w3.org/2000/svg" xmlns:xlink="http://www.w3.org/1999/xlink" xml:space="preserve" xmlns:serif="http://www.serif.com/" style="fill-rule:evenodd;clip-rule:evenodd;stroke-linejoin:round;stroke-miterlimit:2;">
    <rect id="Artboard1" x="0" y="0" width="1080" height="1920" style="fill:none;"/>
    <g id="Artboard11" serif:id="Artboard1">
        <g transform="matrix(1,0,0,1,-31.9166,352.96)">
            <path d="M143.233,486.884C143.233,483.43 140.429,480.626 136.975,480.626L124.459,480.626C121.005,480.626 118.201,483.43 118.201,486.884L118.201,953.742C118.201,957.196 121.005,960 124.459,960L136.975,960C140.429,960 143.233,957.196 143.233,953.742L143.233,486.884Z" style="fill:url(#_Linear1);"/>
            <g transform="matrix(6.12323e-17,-1,1.89295,1.1591e-16,-791.6,1090.72)">
                <path d="M143.233,483.932C143.233,482.107 140.429,480.626 136.975,480.626L124.459,480.626C121.005,480.626 118.201,482.107 118.201,483.932L118.201,956.694C118.201,958.519 121.005,960 124.459,960L136.975,960C140.429,960 143.233,958.519 143.233,956.694L143.233,483.932Z" style="fill:url(#_Linear2);"/>
            </g>
        </g>
    </g>
    <defs>
        <linearGradient id="_Linear1" x1="0" y1="0" x2="1" y2="0" gradientUnits="userSpaceOnUse" gradientTransform="matrix(2.93532e-14,479.374,-9180.02,5.62114e-13,130.717,480.626)"><stop offset="0" style="stop-color:white;stop-opacity:0"/><stop offset="1" style="stop-color:black;stop-opacity:1"/></linearGradient>
        <linearGradient id="_Linear2" x1="0" y1="0" x2="1" y2="0" gradientUnits="userSpaceOnUse" gradientTransform="matrix(-2.42014e-13,-695.985,47758.1,-4.63458e-12,130.717,1176.61)"><stop offset="0" style="stop-color:white;stop-opacity:0"/><stop offset="1" style="stop-color:black;stop-opacity:1"/></linearGradient>
    </defs>
</svg>
