<?xml version="1.0" encoding="UTF-8" standalone="no"?>
<!DOCTYPE svg PUBLIC "-//W3C//DTD SVG 1.1//EN" "http://www.w3.org/Graphics/SVG/1.1/DTD/svg11.dtd">
<svg width="100%" height="100%" viewBox="0 0 75 42" version="1.1" xmlns="http://www.w3.org/2000/svg" xmlns:xlink="http://www.w3.org/1999/xlink" xml:space="preserve" xmlns:serif="http://www.serif.com/" style="fill-rule:evenodd;clip-rule:evenodd;stroke-linejoin:round;stroke-miterlimit:2;">
    <g transform="matrix(1,0,0,1,-166.453,-684.343)">
        <g transform="matrix(0.100003,0,0,0.0999925,158.896,616.227)">
            <g transform="matrix(6.12323e-17,-1,0.659509,4.03833e-17,-416.24,1040.03)">
                <path d="M190.795,790.243C190.795,782.388 186.589,776.01 181.408,776.01L162.634,776.01C157.453,776.01 153.246,782.388 153.246,790.243L153.246,945.768C153.246,953.623 157.453,960 162.634,960L181.408,960C186.589,960 190.795,953.623 190.795,945.768L190.795,790.243Z" style="fill:white;"/>
            </g>
            <g transform="matrix(1.09114,0,0,1.09114,-143.881,-70.7229)">
                <path d="M385.523,776.01C436.329,776.01 477.577,817.258 477.577,868.064C477.577,918.87 436.329,960.118 385.523,960.118C334.717,960.118 293.469,918.87 293.469,868.064C293.469,817.258 334.717,776.01 385.523,776.01ZM385.523,813.178C415.815,813.178 440.409,837.772 440.409,868.064C440.409,898.357 415.815,922.95 385.523,922.95C355.23,922.95 330.637,898.357 330.637,868.064C330.637,837.772 355.23,813.178 385.523,813.178Z" style="fill:rgb(255,166,57);"/>
            </g>
            <g transform="matrix(1,0,0,1,-1.07791,39.7317)">
                <g transform="matrix(2.46084,0,0,2.46084,-645.535,-1268.17)">
                    <path d="M431.55,788.343C417.556,780.264 401.682,776.01 385.523,776.01C334.717,776.01 293.469,817.258 293.469,868.064C293.469,898.098 308.121,926.244 332.723,943.47L340.613,932.202C319.687,917.55 307.225,893.61 307.225,868.064C307.225,824.85 342.309,789.766 385.523,789.766C399.267,789.766 412.769,793.384 424.672,800.256L431.55,788.343Z" style="fill:white;"/>
                </g>
                <g transform="matrix(-2.46084,0,0,2.46084,1547.86,-1268.17)">
                    <path d="M431.55,788.343C417.556,780.264 401.682,776.01 385.523,776.01C334.717,776.01 293.469,817.258 293.469,868.064C293.469,898.098 308.121,926.244 332.723,943.47L340.613,932.202C319.687,917.55 307.225,893.61 307.225,868.064C307.225,824.85 342.309,789.766 385.523,789.766C399.267,789.766 412.769,793.384 424.672,800.256L431.55,788.343Z" style="fill:white;"/>
                </g>
            </g>
        </g>
        <g transform="matrix(0.100003,0,0,0.0999925,193.946,617.072)">
            <g transform="matrix(1,0,0,1,-480.313,-33.4811)">
                <circle cx="759.974" cy="834.524" r="33.481" style="fill:rgb(255,166,57);"/>
            </g>
            <g transform="matrix(1,0,0,1,-413.351,33.4811)">
                <circle cx="759.974" cy="834.524" r="33.481" style="fill:rgb(255,166,57);"/>
            </g>
            <g transform="matrix(1,0,0,1,-547.275,33.4811)">
                <circle cx="759.974" cy="834.524" r="33.481" style="fill:rgb(255,166,57);"/>
            </g>
            <g transform="matrix(1,0,0,1,-480.313,100.443)">
                <circle cx="759.974" cy="834.524" r="33.481" style="fill:rgb(255,166,57);"/>
            </g>
        </g>
    </g>
</svg>
