<?xml version="1.0" encoding="UTF-8" standalone="no"?>
<!DOCTYPE svg PUBLIC "-//W3C//DTD SVG 1.1//EN" "http://www.w3.org/Graphics/SVG/1.1/DTD/svg11.dtd">
<svg width="100%" height="100%" viewBox="0 0 75 37" version="1.1" xmlns="http://www.w3.org/2000/svg" xmlns:xlink="http://www.w3.org/1999/xlink" xml:space="preserve" xmlns:serif="http://www.serif.com/" style="fill-rule:evenodd;clip-rule:evenodd;stroke-linejoin:round;stroke-miterlimit:2;">
    <g transform="matrix(1,0,0,1,-166.561,-684.692)">
        <rect id="Artboard1" x="0" y="0" width="1080" height="1920" style="fill:none;"/>
        <g id="Artboard11" serif:id="Artboard1">
            <g transform="matrix(0.100003,0,0,0.0999925,158.896,616.227)">
                <g transform="matrix(6.12323e-17,-1,0.659509,4.03833e-17,-416.24,1040.03)">
                    <path d="M190.795,790.243C190.795,782.388 186.589,776.01 181.408,776.01L162.634,776.01C157.453,776.01 153.246,782.388 153.246,790.243L153.246,945.768C153.246,953.623 157.453,960 162.634,960L181.408,960C186.589,960 190.795,953.623 190.795,945.768L190.795,790.243Z" style="fill:white;"/>
                </g>
                <g transform="matrix(1.09114,0,0,1.09114,-143.881,-70.7229)">
                    <path d="M385.523,776.01C436.329,776.01 477.577,817.258 477.577,868.064C477.577,918.87 436.329,960.118 385.523,960.118C334.717,960.118 293.469,918.87 293.469,868.064C293.469,817.258 334.717,776.01 385.523,776.01ZM385.523,813.178C415.815,813.178 440.409,837.772 440.409,868.064C440.409,898.357 415.815,922.95 385.523,922.95C355.23,922.95 330.637,898.357 330.637,868.064C330.637,837.772 355.23,813.178 385.523,813.178Z" style="fill:rgb(255,166,57);"/>
                </g>
            </g>
            <g transform="matrix(0.100003,0,0,0.0999925,193.946,617.072)">
                <g transform="matrix(1,0,0,1,-480.313,-33.4811)">
                    <circle cx="759.974" cy="834.524" r="33.481" style="fill:rgb(255,166,57);"/>
                </g>
                <g transform="matrix(1,0,0,1,-413.351,33.4811)">
                    <circle cx="759.974" cy="834.524" r="33.481" style="fill:rgb(255,166,57);"/>
                </g>
                <g transform="matrix(1,0,0,1,-547.275,33.4811)">
                    <circle cx="759.974" cy="834.524" r="33.481" style="fill:rgb(255,166,57);"/>
                </g>
                <g transform="matrix(1,0,0,1,-480.313,100.443)">
                    <circle cx="759.974" cy="834.524" r="33.481" style="fill:rgb(255,166,57);"/>
                </g>
            </g>
            <g transform="matrix(0.100003,0,0,0.0999925,149.904,616.227)">
                <g transform="matrix(7.4561e-17,-1,1.66382,1.09102e-16,-1086.11,875.487)">
                    <path d="M190.795,787.293C190.795,781.066 182.383,776.01 172.021,776.01C161.659,776.01 153.246,781.066 153.246,787.293L153.246,948.717C153.246,954.944 161.659,960 172.021,960C182.383,960 190.795,954.944 190.795,948.717L190.795,787.293Z" style="fill:white;"/>
                </g>
                <g transform="matrix(7.50328e-17,-1,1.72272,1.12708e-16,-776.022,875.487)">
                    <path d="M190.795,781.459C190.795,778.452 186.589,776.01 181.408,776.01L162.634,776.01C157.453,776.01 153.246,778.452 153.246,781.459L153.246,954.551C153.246,957.559 157.453,960 162.634,960L181.408,960C186.589,960 190.795,957.559 190.795,954.551L190.795,781.459Z" style="fill:white;"/>
                </g>
                <g transform="matrix(1,1.59629e-17,-7.22209e-18,1.99265,686.995,-861.628)">
                    <path d="M190.795,780.721C190.795,778.121 186.589,776.01 181.408,776.01L162.634,776.01C157.453,776.01 153.246,778.121 153.246,780.721C207.562,838.911 205.737,897.1 153.246,955.289C153.246,957.889 157.453,960 162.634,960L181.408,960C186.589,960 190.795,957.889 190.795,955.289C242.441,897.1 241.683,838.911 190.795,780.721Z" style="fill:white;"/>
                </g>
                <g transform="matrix(-1,1.59629e-17,7.22209e-18,1.99265,395.807,-861.628)">
                    <path d="M190.795,780.721C190.795,778.121 186.589,776.01 181.408,776.01L162.634,776.01C157.453,776.01 153.246,778.121 153.246,780.721C207.562,838.911 205.737,897.1 153.246,955.289C153.246,957.889 157.453,960 162.634,960L181.408,960C186.589,960 190.795,957.889 190.795,955.289C242.441,897.1 241.683,838.911 190.795,780.721Z" style="fill:white;"/>
                </g>
                <g transform="matrix(-1,1.59629e-17,7.22209e-18,1.99265,395.807,-861.628)">
                    <path d="M190.795,780.721C190.795,778.121 186.589,776.01 181.408,776.01L162.634,776.01C157.453,776.01 153.246,778.121 153.246,780.721C207.562,838.911 205.737,897.1 153.246,955.289C153.246,957.889 157.453,960 162.634,960L181.408,960C186.589,960 190.795,957.889 190.795,955.289C242.441,897.1 241.683,838.911 190.795,780.721Z" style="fill:white;"/>
                </g>
            </g>
        </g>
    </g>
</svg>
