<?xml version="1.0" encoding="UTF-8" standalone="no"?>
<!DOCTYPE svg PUBLIC "-//W3C//DTD SVG 1.1//EN" "http://www.w3.org/Graphics/SVG/1.1/DTD/svg11.dtd">
<svg width="100%" height="100%" viewBox="0 0 419 396" version="1.1" xmlns="http://www.w3.org/2000/svg" xmlns:xlink="http://www.w3.org/1999/xlink" xml:space="preserve" xmlns:serif="http://www.serif.com/" style="fill-rule:evenodd;clip-rule:evenodd;stroke-linejoin:round;stroke-miterlimit:2;">
    <g transform="matrix(1,0,0,1,-400.587,-217.963)">
        <g transform="matrix(1.04911,0,0,1.04911,-19.6737,-10.7046)">
            <path d="M799.087,378.239C799.087,289.78 727.27,217.963 638.811,217.963L560.863,217.963C472.404,217.963 400.587,289.78 400.587,378.239L400.587,434.28C400.587,522.739 472.404,594.556 560.863,594.556L638.811,594.556C727.27,594.556 799.087,522.739 799.087,434.28L799.087,378.239Z" style="fill:rgb(255,166,57);"/>
        </g>
        <g transform="matrix(1,0,0,1,0,8.67938)">
            <g transform="matrix(1.10594,0,0,1.10594,-93.3951,-30.3093)">
                <rect x="507.152" y="307.815" width="204.967" height="117.505"/>
            </g>
            <g transform="matrix(1.10594,0,0,1.10594,-95.6102,-23.4931)">
                <rect x="598.619" y="400" width="26.038" height="59.371"/>
            </g>
            <g transform="matrix(1.10594,0,0,1.10594,-95.6102,-23.4931)">
                <rect x="575.252" y="450.024" width="73.441" height="18.694"/>
            </g>
            <g transform="matrix(1.19726,0,0,1.15168,-157.583,-37.5459)">
                <rect x="686.748" y="291.124" width="72.773" height="177.593"/>
            </g>
            <g transform="matrix(1.10594,0,0,1.10594,-90.9951,-11.8499)">
                <circle cx="722.634" cy="419.157" r="10.528" style="fill:white;"/>
            </g>
        </g>
    </g>
</svg>
