<?xml version="1.0" encoding="UTF-8" standalone="no"?>
<!DOCTYPE svg PUBLIC "-//W3C//DTD SVG 1.1//EN" "http://www.w3.org/Graphics/SVG/1.1/DTD/svg11.dtd">
<svg width="100%" height="100%" viewBox="0 0 135 407" version="1.1" xmlns="http://www.w3.org/2000/svg" xmlns:xlink="http://www.w3.org/1999/xlink" xml:space="preserve" xmlns:serif="http://www.serif.com/" style="fill-rule:evenodd;clip-rule:evenodd;stroke-linecap:round;stroke-linejoin:round;stroke-miterlimit:1.5;">
    <g transform="matrix(1,0,0,1,-350.489,-88.8534)">
        <g>
            <g transform="matrix(0.94268,-0.39253,0.231164,0.55515,-55.4676,203.184)">
                <path d="M474.115,265.651C488.234,265.651 499.848,277.039 499.848,289.558C499.848,289.558 498.775,304.05 484.807,306.107C465.866,308.897 433.222,309.711 448.533,288.333C455.822,278.155 459.996,265.651 474.115,265.651Z" style="fill:rgb(255,166,57);stroke:black;stroke-width:0.94px;"/>
            </g>
            <g transform="matrix(0.94268,-0.39253,0.231164,0.55515,-61.6181,298.061)">
                <path d="M474.115,265.651C488.234,265.651 499.848,277.039 499.848,289.558C499.848,289.558 498.775,304.05 484.807,306.107C465.866,308.897 433.222,309.711 448.533,288.333C455.822,278.155 459.996,265.651 474.115,265.651Z" style="fill:rgb(255,166,57);stroke:black;stroke-width:0.94px;"/>
            </g>
            <g transform="matrix(0.727835,-0.59657,0.329168,0.5495,1.06372,240.34)">
                <path d="M474.115,265.651C488.234,265.651 499.848,277.039 499.848,289.558C499.848,289.558 498.775,304.05 484.807,306.107C465.866,308.897 433.222,309.711 448.533,288.333C455.822,278.155 459.996,265.651 474.115,265.651Z" style="fill:rgb(255,166,57);stroke:black;stroke-width:1.05px;"/>
            </g>
            <g transform="matrix(1.02048,-0.0366204,0.021566,0.600969,-31.6351,85.0287)">
                <path d="M474.115,265.651C488.234,265.651 499.848,277.039 499.848,289.558C499.848,289.558 498.775,304.05 484.807,306.107C465.866,308.897 433.222,309.711 448.533,288.333C455.822,278.155 459.996,265.651 474.115,265.651Z" style="fill:rgb(255,166,57);stroke:black;stroke-width:0.94px;"/>
            </g>
            <g transform="matrix(-0.94268,-0.39253,-0.231164,0.55515,893.35,307.142)">
                <path d="M474.115,265.651C488.234,265.651 499.848,277.039 499.848,289.558C499.848,289.558 498.775,304.05 484.807,306.107C465.866,308.897 433.222,309.711 448.533,288.333C455.822,278.155 459.996,265.651 474.115,265.651Z" style="fill:rgb(255,166,57);stroke:black;stroke-width:0.94px;"/>
            </g>
            <g transform="matrix(-1.02048,-0.0366204,-0.021566,0.600969,867.212,61.1688)">
                <path d="M474.115,265.651C488.234,265.651 499.848,277.039 499.848,289.558C499.848,289.558 498.775,304.05 484.807,306.107C465.866,308.897 433.222,309.711 448.533,288.333C455.822,278.155 459.996,265.651 474.115,265.651Z" style="fill:rgb(255,166,57);stroke:black;stroke-width:0.94px;"/>
            </g>
            <g transform="matrix(-0.94268,-0.39253,-0.231164,0.55515,893.062,179.905)">
                <path d="M474.115,265.651C488.234,265.651 499.848,277.039 499.848,289.558C499.848,289.558 498.775,304.05 484.807,306.107C465.866,308.897 433.222,309.711 448.533,288.333C455.822,278.155 459.996,265.651 474.115,265.651Z" style="fill:rgb(255,166,57);stroke:black;stroke-width:0.94px;"/>
            </g>
        </g>
        <g>
            <g transform="matrix(0.00909015,0.0107092,-0.716236,0.607952,650.888,4.7353)">
                <path d="M970.107,251.521C-446.797,275.417 290.872,301.135 571.761,326.535L424.829,326.535C300.241,301.715 -608.886,273.585 970.107,251.521Z" style="fill:rgb(224,134,24);"/>
            </g>
            <g transform="matrix(0.00909015,0.0107092,-0.716236,0.607952,644.737,99.6126)">
                <path d="M970.107,251.521C-446.797,275.417 290.872,301.135 571.761,326.535L424.829,326.535C300.241,301.715 -608.886,273.585 970.107,251.521Z" style="fill:rgb(224,134,24);"/>
            </g>
            <g transform="matrix(0.0100506,0.0100603,-0.50651,0.76807,575.647,-100.166)">
                <path d="M970.107,251.521C-118.922,269.887 64.847,289.33 335.745,308.878C417.305,314.763 506.762,320.657 571.761,326.535L424.829,326.535C401.834,321.954 352.112,317.26 296.242,312.513C49.406,291.538 -317.451,269.513 970.107,251.521Z" style="fill:rgb(224,134,24);"/>
            </g>
            <g transform="matrix(-0.00909015,0.0107092,0.716236,0.607952,186.706,-18.5435)">
                <path d="M970.107,251.521C-446.797,275.417 290.872,301.135 571.761,326.535L424.829,326.535C300.241,301.715 -608.886,273.585 970.107,251.521Z" style="fill:rgb(224,134,24);"/>
            </g>
            <g transform="matrix(0.00475215,0.0132188,-0.884074,0.317825,699.431,147.176)">
                <path d="M970.107,251.521C-446.797,275.417 290.872,301.135 571.761,326.535L424.829,326.535C300.241,301.715 -608.886,273.585 970.107,251.521Z" style="fill:rgb(224,134,24);"/>
            </g>
            <g transform="matrix(-0.00862406,0.0107092,0.679512,0.607952,202.653,110.437)">
                <path d="M970.107,251.521C-446.797,275.417 290.872,301.135 571.761,326.535L424.829,326.535C300.241,301.715 -608.886,273.585 970.107,251.521Z" style="fill:rgb(224,134,24);"/>
            </g>
            <g transform="matrix(-0.00450848,0.0132188,0.838744,0.317825,148.91,125.059)">
                <path d="M970.107,251.521C-446.797,275.417 290.872,301.135 571.761,326.535L424.829,326.535C300.241,301.715 -608.886,273.585 970.107,251.521Z" style="fill:rgb(224,134,24);"/>
            </g>
        </g>
        <g>
            <g transform="matrix(0.94268,-0.39253,0.231164,0.55515,-62.6795,233.879)">
                <path d="M474.115,265.651C488.234,265.651 499.848,277.039 499.848,289.558C499.848,289.558 498.775,304.05 484.807,306.107C465.866,308.897 433.222,309.711 448.533,288.333C455.822,278.155 459.996,265.651 474.115,265.651Z" style="fill:rgb(224,134,24);stroke:black;stroke-width:0.94px;"/>
            </g>
            <g transform="matrix(-0.94268,-0.39253,-0.231164,0.55515,893.35,274.682)">
                <path d="M474.115,265.651C488.234,265.651 499.848,277.039 499.848,289.558C499.848,289.558 498.775,304.05 484.807,306.107C465.866,308.897 433.222,309.711 448.533,288.333C455.822,278.155 459.996,265.651 474.115,265.651Z" style="fill:rgb(224,134,24);stroke:black;stroke-width:0.94px;"/>
            </g>
            <g transform="matrix(-0.94268,-0.39253,-0.231164,0.55515,900.274,210.601)">
                <path d="M474.115,265.651C488.234,265.651 499.848,277.039 499.848,289.558C499.848,289.558 498.775,304.05 484.807,306.107C465.866,308.897 433.222,309.711 448.533,288.333C455.822,278.155 459.996,265.651 474.115,265.651Z" style="fill:rgb(224,134,24);stroke:black;stroke-width:0.94px;"/>
            </g>
            <g transform="matrix(0.94268,-0.39253,0.231164,0.55515,-60.0981,173.963)">
                <path d="M474.115,265.651C488.234,265.651 499.848,277.039 499.848,289.558C499.848,289.558 498.775,304.05 484.807,306.107C465.866,308.897 432.894,307.081 448.204,285.703C455.493,275.525 459.996,265.651 474.115,265.651Z" style="fill:rgb(224,134,24);stroke:black;stroke-width:0.94px;"/>
            </g>
            <g transform="matrix(-0.558521,-0.854857,-0.50343,0.328917,807.265,422.576)">
                <path d="M474.115,265.651C488.234,265.651 499.848,277.039 499.848,289.558C499.848,289.558 498.775,304.05 484.807,306.107C465.866,308.897 432.894,307.081 448.204,285.703C455.493,275.525 459.996,265.651 474.115,265.651Z" style="fill:rgb(224,134,24);stroke:black;stroke-width:0.94px;"/>
            </g>
        </g>
        <g transform="matrix(-0.558521,-0.854857,-0.50343,0.328917,807.682,422.576)">
            <path d="M474.115,265.651C488.234,265.651 499.848,277.039 499.848,289.558C499.848,289.558 498.775,304.05 484.807,306.107C465.866,308.897 432.894,307.081 448.204,285.703C455.493,275.525 459.996,265.651 474.115,265.651Z" style="fill:rgb(224,134,24);stroke:black;stroke-width:0.94px;"/>
        </g>
        <g>
            <g transform="matrix(0.00909015,0.0107092,-0.716236,0.607952,643.676,35.4304)">
                <path d="M970.107,251.521C-446.797,275.417 290.872,301.135 571.761,326.535L424.829,326.535C300.241,301.715 -608.886,273.585 970.107,251.521Z" style="fill:rgb(255,166,57);"/>
            </g>
            <g transform="matrix(-0.00909015,0.0107092,0.716236,0.607952,193.918,12.1516)">
                <path d="M970.107,251.521C-446.797,275.417 290.872,301.135 571.761,326.535L424.829,326.535C300.241,301.715 -608.886,273.585 970.107,251.521Z" style="fill:rgb(255,166,57);"/>
            </g>
            <g transform="matrix(0.00909015,0.0107092,-0.716236,0.607952,642.783,-24.994)">
                <path d="M970.107,251.521C-446.797,275.417 290.872,301.135 571.761,326.535L424.829,326.535C300.241,301.715 -608.886,273.585 970.107,251.521Z" style="fill:rgb(255,166,57);"/>
            </g>
            <g transform="matrix(-0.01354,0.0037398,0.250119,0.905561,338.802,-136.559)">
                <path d="M970.107,251.521C-446.797,275.417 290.872,301.135 571.761,326.535L424.829,326.535C300.241,301.715 -608.886,273.585 970.107,251.521Z" style="fill:rgb(255,166,57);"/>
            </g>
            <g transform="matrix(-0.00862406,0.0107092,0.679512,0.607952,201.357,77.9766)">
                <path d="M970.107,251.521C-446.797,275.417 290.872,301.135 571.761,326.535L424.829,326.535C300.241,301.715 -608.886,273.585 970.107,251.521Z" style="fill:rgb(255,166,57);"/>
            </g>
        </g>
        <g transform="matrix(1.44163,0,0,1,-194.35,0)">
            <path d="M426.329,141.894L419.549,141.894C424.741,218.091 418.847,294.216 412.769,370.413L426.329,370.413C430.709,294.24 430.402,218.067 426.329,141.894Z" style="fill:white;stroke:black;stroke-width:0.7px;"/>
        </g>
        <g transform="matrix(1.44163,0,0,1,-194.35,0)">
            <path d="M422.49,141.894L419.549,141.894C424.741,218.091 418.847,294.216 412.769,370.413C412.099,370.413 406.856,370.413 421.134,370.413C425.515,294.24 426.563,218.067 422.49,141.894Z" style="fill-opacity:0.15;"/>
        </g>
        <g transform="matrix(0.639241,-4.41803e-17,4.41803e-17,-1,161.272,859.835)">
            <path d="M471.777,489.421L315.083,489.421L326.983,365.455L459.876,365.455L471.777,489.421Z" style="fill:rgb(83,83,83);stroke:black;stroke-width:1.22px;"/>
        </g>
        <g transform="matrix(0.639241,-4.41803e-17,4.41803e-17,-1,161.272,859.835)">
            <path d="M357.111,489.421L315.083,489.421L326.983,365.455L346.003,365.455L357.111,489.421Z" style="fill-opacity:0.16;"/>
        </g>
    </g>
</svg>
